<?xml version="1.0" standalone="no"?>
<!DOCTYPE svg PUBLIC "-//W3C//DTD SVG 20010904//EN"
 "http://www.w3.org/TR/2001/REC-SVG-20010904/DTD/svg10.dtd">
<svg version="1.0" xmlns="http://www.w3.org/2000/svg"
 width="204.000000pt" height="204.000000pt" viewBox="0 0 204.000000 204.000000"
 preserveAspectRatio="xMidYMid meet">
<metadata>
Created by potrace 1.14, written by Peter Selinger 2001-2017
</metadata>
<g transform="translate(0.000000,204.000000) scale(0.100000,-0.100000)"
fill="#000000" stroke="none">
<path d="M0 1020 l0 -1020 1020 0 1020 0 0 1020 0 1020 -1020 0 -1020 0 0
-1020z m1270 430 c92 -228 188 -462 214 -519 25 -57 44 -106 42 -108 -2 -3
-54 37 -114 89 -60 51 -295 234 -523 407 -228 173 -418 317 -423 322 -19 17
140 126 249 170 110 44 185 58 294 56 l94 -2 167 -415z m313 188 c139 -137
218 -292 247 -483 12 -77 8 -203 -8 -245 -5 -15 -47 77 -154 343 -190 467
-189 467 -178 467 5 0 47 -37 93 -82z m-1305 -558 c27 -69 93 -233 147 -365
138 -341 136 -335 124 -335 -23 0 -187 178 -228 248 -85 143 -128 313 -117
465 6 81 14 122 22 115 1 -2 25 -60 52 -128z"/>
</g>
</svg>
